<svg width="13" height="13" viewBox="0 0 13 13" fill="none" xmlns="http://www.w3.org/2000/svg">
<path d="M12.5358 3.33278L10.4547 1.25169C10.1831 0.996561 9.82717 0.850173 9.45466 0.84037C9.08214 0.830567 8.71902 0.958033 8.43437 1.19852L1.59865 8.03424C1.35315 8.28181 1.20029 8.60631 1.16572 8.95326L0.83913 12.1205C0.828898 12.2317 0.843333 12.3439 0.881406 12.4489C0.919478 12.5539 0.980251 12.6492 1.05939 12.7281C1.13036 12.7985 1.21453 12.8542 1.30707 12.892C1.39961 12.9298 1.4987 12.9489 1.59865 12.9484H1.66701L4.83422 12.6597C5.18117 12.6252 5.50567 12.4723 5.75325 12.2268L12.589 5.39109C12.8543 5.1108 12.9977 4.73677 12.9877 4.35095C12.9777 3.96514 12.8152 3.599 12.5358 3.33278ZM9.95341 5.86959L7.91789 3.83407L9.39896 2.31502L11.4725 4.38852L9.95341 5.86959Z" fill="#9C00B9"/>
</svg>
